<svg width="1276" height="845" viewBox="0 0 1276 845" fill="none" xmlns="http://www.w3.org/2000/svg">
<path d="M681.878 130.655C447.136 20.9833 383.071 109.959 300.878 386.149" stroke="url(#paint0_linear_0_1)"/>
<path d="M620.878 542.696C862.074 656.299 947.424 593.09 1031.88 307" stroke="url(#paint1_linear_0_1)"/>
<path d="M191.378 318L191.939 319.727H193.755L192.286 320.795L192.847 322.523L191.378 321.455L189.908 322.523L190.469 320.795L189 319.727H190.816L191.378 318Z" fill="white"/>
<path d="M1273.38 313L1273.94 314.727H1275.76L1274.29 315.795L1274.85 317.523L1273.38 316.455L1271.91 317.523L1272.47 315.795L1271 314.727H1272.82L1273.38 313Z" fill="white"/>
<path d="M173.378 800L173.939 801.727H175.755L174.286 802.795L174.847 804.523L173.378 803.455L171.908 804.523L172.469 802.795L171 801.727H172.816L173.378 800Z" fill="white"/>
<path d="M143.378 495L143.939 496.727H145.755L144.286 497.795L144.847 499.523L143.378 498.455L141.908 499.523L142.469 497.795L141 496.727H142.816L143.378 495Z" fill="white"/>
<path d="M852.378 97L852.939 98.7275H854.755L853.286 99.7951L853.847 101.523L852.378 100.455L850.908 101.523L851.469 99.7951L850 98.7275H851.816L852.378 97Z" fill="white"/>
<path d="M1224.38 775L1224.94 776.727H1226.76L1225.29 777.795L1225.85 779.523L1224.38 778.455L1222.91 779.523L1223.47 777.795L1222 776.727H1223.82L1224.38 775Z" fill="white"/>
<path d="M355.378 83L355.939 84.7275H357.755L356.286 85.7951L356.847 87.5225L355.378 86.4549L353.908 87.5225L354.469 85.7951L353 84.7275H354.816L355.378 83Z" fill="white"/>
<path d="M2.37764 39L2.93892 40.7275H4.75528L3.28582 41.7951L3.8471 43.5225L2.37764 42.4549L0.908177 43.5225L1.46946 41.7951L-1.43051e-06 40.7275H1.81635L2.37764 39Z" fill="white"/>
<path d="M701.378 56L701.939 57.7275H703.755L702.286 58.7951L702.847 60.5225L701.378 59.4549L699.908 60.5225L700.469 58.7951L699 57.7275H700.816L701.378 56Z" fill="white"/>
<path d="M232.378 0L232.939 1.72746H234.755L233.286 2.79508L233.847 4.52254L232.378 3.45492L230.908 4.52254L231.469 2.79508L230 1.72746H231.816L232.378 0Z" fill="white"/>
<path d="M1079.38 188L1079.94 189.727H1081.76L1080.29 190.795L1080.85 192.523L1079.38 191.455L1077.91 192.523L1078.47 190.795L1077 189.727H1078.82L1079.38 188Z" fill="white"/>
<path d="M319.378 840L319.939 841.727H321.755L320.286 842.795L320.847 844.523L319.378 843.455L317.908 844.523L318.469 842.795L317 841.727H318.816L319.378 840Z" fill="white"/>
<path d="M993.378 97L993.939 98.7275H995.755L994.286 99.7951L994.847 101.523L993.378 100.455L991.908 101.523L992.469 99.7951L991 98.7275H992.816L993.378 97Z" fill="white"/>
<path d="M1029.38 0L1029.94 1.72746H1031.76L1030.29 2.79508L1030.85 4.52254L1029.38 3.45492L1027.91 4.52254L1028.47 2.79508L1027 1.72746H1028.82L1029.38 0Z" fill="white"/>
<path d="M1000.38 770L1000.94 771.727H1002.76L1001.29 772.795L1001.85 774.523L1000.38 773.455L998.908 774.523L999.469 772.795L998 771.727H999.816L1000.38 770Z" fill="white"/>
<path d="M1268.38 102L1268.94 103.727H1270.76L1269.29 104.795L1269.85 106.523L1268.38 105.455L1266.91 106.523L1267.47 104.795L1266 103.727H1267.82L1268.38 102Z" fill="white"/>
<path d="M574.378 540L574.939 541.727H576.755L575.286 542.795L575.847 544.523L574.378 543.455L572.908 544.523L573.469 542.795L572 541.727H573.816L574.378 540Z" fill="white"/>
<path d="M491.378 155L491.939 156.727H493.755L492.286 157.795L492.847 159.523L491.378 158.455L489.908 159.523L490.469 157.795L489 156.727H490.816L491.378 155Z" fill="white"/>
<path d="M897.378 535L897.939 536.727H899.755L898.286 537.795L898.847 539.523L897.378 538.455L895.908 539.523L896.469 537.795L895 536.727H896.816L897.378 535Z" fill="white"/>
<path d="M1185.38 389L1185.94 390.727H1187.76L1186.29 391.795L1186.85 393.523L1185.38 392.455L1183.91 393.523L1184.47 391.795L1183 390.727H1184.82L1185.38 389Z" fill="white"/>
<path d="M56.3776 465L56.9389 466.727H58.7553L57.2858 467.795L57.8471 469.523L56.3776 468.455L54.9082 469.523L55.4695 467.795L54 466.727H55.8164L56.3776 465Z" fill="white"/>
<path d="M61.3776 236L61.9389 237.727H63.7553L62.2858 238.795L62.8471 240.523L61.3776 239.455L59.9082 240.523L60.4695 238.795L59 237.727H60.8164L61.3776 236Z" fill="white"/>
<path d="M466.378 562L466.939 563.727H468.755L467.286 564.795L467.847 566.523L466.378 565.455L464.908 566.523L465.469 564.795L464 563.727H465.816L466.378 562Z" fill="white"/>
<path d="M265.378 200L265.939 201.727H267.755L266.286 202.795L266.847 204.523L265.378 203.455L263.908 204.523L264.469 202.795L263 201.727H264.816L265.378 200Z" fill="white"/>
<path d="M138.378 94L138.939 95.7275H140.755L139.286 96.7951L139.847 98.5225L138.378 97.4549L136.908 98.5225L137.469 96.7951L136 95.7275H137.816L138.378 94Z" fill="white"/>
<g filter="url(#filter0_ddd_0_1)">
<circle cx="176.878" cy="49" r="5" fill="white" fill-opacity="0.8" shape-rendering="crispEdges"/>
</g>
<g filter="url(#filter1_ddd_0_1)">
<circle cx="176.878" cy="831" r="5" fill="white" fill-opacity="0.8" shape-rendering="crispEdges"/>
</g>
<g filter="url(#filter2_ddd_0_1)">
<circle cx="1147.88" cy="831" r="5" fill="white" fill-opacity="0.8" shape-rendering="crispEdges"/>
</g>
<g filter="url(#filter3_ddd_0_1)">
<circle cx="1147.88" cy="49" r="5" fill="white" fill-opacity="0.8" shape-rendering="crispEdges"/>
</g>
<defs>
<filter id="filter0_ddd_0_1" x="167.878" y="40" width="18" height="20" filterUnits="userSpaceOnUse" color-interpolation-filters="sRGB">
<feFlood flood-opacity="0" result="BackgroundImageFix"/>
<feColorMatrix in="SourceAlpha" type="matrix" values="0 0 0 0 0 0 0 0 0 0 0 0 0 0 0 0 0 0 127 0" result="hardAlpha"/>
<feMorphology radius="4" operator="dilate" in="SourceAlpha" result="effect1_dropShadow_0_1"/>
<feOffset/>
<feComposite in2="hardAlpha" operator="out"/>
<feColorMatrix type="matrix" values="0 0 0 0 0.902441 0 0 0 0 0.923347 0 0 0 0 1 0 0 0 1 0"/>
<feBlend mode="normal" in2="BackgroundImageFix" result="effect1_dropShadow_0_1"/>
<feColorMatrix in="SourceAlpha" type="matrix" values="0 0 0 0 0 0 0 0 0 0 0 0 0 0 0 0 0 0 127 0" result="hardAlpha"/>
<feMorphology radius="1" operator="dilate" in="SourceAlpha" result="effect2_dropShadow_0_1"/>
<feOffset/>
<feComposite in2="hardAlpha" operator="out"/>
<feColorMatrix type="matrix" values="0 0 0 0 0.849002 0 0 0 0 0.864521 0 0 0 0 0.914958 0 0 0 1 0"/>
<feBlend mode="normal" in2="effect1_dropShadow_0_1" result="effect2_dropShadow_0_1"/>
<feColorMatrix in="SourceAlpha" type="matrix" values="0 0 0 0 0 0 0 0 0 0 0 0 0 0 0 0 0 0 127 0" result="hardAlpha"/>
<feOffset dy="2"/>
<feGaussianBlur stdDeviation="2"/>
<feComposite in2="hardAlpha" operator="out"/>
<feColorMatrix type="matrix" values="0 0 0 0 0.746282 0 0 0 0 0.758412 0 0 0 0 0.806934 0 0 0 0.6 0"/>
<feBlend mode="normal" in2="effect2_dropShadow_0_1" result="effect3_dropShadow_0_1"/>
<feBlend mode="normal" in="SourceGraphic" in2="effect3_dropShadow_0_1" result="shape"/>
</filter>
<filter id="filter1_ddd_0_1" x="167.878" y="822" width="18" height="20" filterUnits="userSpaceOnUse" color-interpolation-filters="sRGB">
<feFlood flood-opacity="0" result="BackgroundImageFix"/>
<feColorMatrix in="SourceAlpha" type="matrix" values="0 0 0 0 0 0 0 0 0 0 0 0 0 0 0 0 0 0 127 0" result="hardAlpha"/>
<feMorphology radius="4" operator="dilate" in="SourceAlpha" result="effect1_dropShadow_0_1"/>
<feOffset/>
<feComposite in2="hardAlpha" operator="out"/>
<feColorMatrix type="matrix" values="0 0 0 0 0.902441 0 0 0 0 0.923347 0 0 0 0 1 0 0 0 1 0"/>
<feBlend mode="normal" in2="BackgroundImageFix" result="effect1_dropShadow_0_1"/>
<feColorMatrix in="SourceAlpha" type="matrix" values="0 0 0 0 0 0 0 0 0 0 0 0 0 0 0 0 0 0 127 0" result="hardAlpha"/>
<feMorphology radius="1" operator="dilate" in="SourceAlpha" result="effect2_dropShadow_0_1"/>
<feOffset/>
<feComposite in2="hardAlpha" operator="out"/>
<feColorMatrix type="matrix" values="0 0 0 0 0.849002 0 0 0 0 0.864521 0 0 0 0 0.914958 0 0 0 1 0"/>
<feBlend mode="normal" in2="effect1_dropShadow_0_1" result="effect2_dropShadow_0_1"/>
<feColorMatrix in="SourceAlpha" type="matrix" values="0 0 0 0 0 0 0 0 0 0 0 0 0 0 0 0 0 0 127 0" result="hardAlpha"/>
<feOffset dy="2"/>
<feGaussianBlur stdDeviation="2"/>
<feComposite in2="hardAlpha" operator="out"/>
<feColorMatrix type="matrix" values="0 0 0 0 0.746282 0 0 0 0 0.758412 0 0 0 0 0.806934 0 0 0 0.6 0"/>
<feBlend mode="normal" in2="effect2_dropShadow_0_1" result="effect3_dropShadow_0_1"/>
<feBlend mode="normal" in="SourceGraphic" in2="effect3_dropShadow_0_1" result="shape"/>
</filter>
<filter id="filter2_ddd_0_1" x="1138.88" y="822" width="18" height="20" filterUnits="userSpaceOnUse" color-interpolation-filters="sRGB">
<feFlood flood-opacity="0" result="BackgroundImageFix"/>
<feColorMatrix in="SourceAlpha" type="matrix" values="0 0 0 0 0 0 0 0 0 0 0 0 0 0 0 0 0 0 127 0" result="hardAlpha"/>
<feMorphology radius="4" operator="dilate" in="SourceAlpha" result="effect1_dropShadow_0_1"/>
<feOffset/>
<feComposite in2="hardAlpha" operator="out"/>
<feColorMatrix type="matrix" values="0 0 0 0 0.902441 0 0 0 0 0.923347 0 0 0 0 1 0 0 0 1 0"/>
<feBlend mode="normal" in2="BackgroundImageFix" result="effect1_dropShadow_0_1"/>
<feColorMatrix in="SourceAlpha" type="matrix" values="0 0 0 0 0 0 0 0 0 0 0 0 0 0 0 0 0 0 127 0" result="hardAlpha"/>
<feMorphology radius="1" operator="dilate" in="SourceAlpha" result="effect2_dropShadow_0_1"/>
<feOffset/>
<feComposite in2="hardAlpha" operator="out"/>
<feColorMatrix type="matrix" values="0 0 0 0 0.849002 0 0 0 0 0.864521 0 0 0 0 0.914958 0 0 0 1 0"/>
<feBlend mode="normal" in2="effect1_dropShadow_0_1" result="effect2_dropShadow_0_1"/>
<feColorMatrix in="SourceAlpha" type="matrix" values="0 0 0 0 0 0 0 0 0 0 0 0 0 0 0 0 0 0 127 0" result="hardAlpha"/>
<feOffset dy="2"/>
<feGaussianBlur stdDeviation="2"/>
<feComposite in2="hardAlpha" operator="out"/>
<feColorMatrix type="matrix" values="0 0 0 0 0.746282 0 0 0 0 0.758412 0 0 0 0 0.806934 0 0 0 0.6 0"/>
<feBlend mode="normal" in2="effect2_dropShadow_0_1" result="effect3_dropShadow_0_1"/>
<feBlend mode="normal" in="SourceGraphic" in2="effect3_dropShadow_0_1" result="shape"/>
</filter>
<filter id="filter3_ddd_0_1" x="1138.88" y="40" width="18" height="20" filterUnits="userSpaceOnUse" color-interpolation-filters="sRGB">
<feFlood flood-opacity="0" result="BackgroundImageFix"/>
<feColorMatrix in="SourceAlpha" type="matrix" values="0 0 0 0 0 0 0 0 0 0 0 0 0 0 0 0 0 0 127 0" result="hardAlpha"/>
<feMorphology radius="4" operator="dilate" in="SourceAlpha" result="effect1_dropShadow_0_1"/>
<feOffset/>
<feComposite in2="hardAlpha" operator="out"/>
<feColorMatrix type="matrix" values="0 0 0 0 0.902441 0 0 0 0 0.923347 0 0 0 0 1 0 0 0 1 0"/>
<feBlend mode="normal" in2="BackgroundImageFix" result="effect1_dropShadow_0_1"/>
<feColorMatrix in="SourceAlpha" type="matrix" values="0 0 0 0 0 0 0 0 0 0 0 0 0 0 0 0 0 0 127 0" result="hardAlpha"/>
<feMorphology radius="1" operator="dilate" in="SourceAlpha" result="effect2_dropShadow_0_1"/>
<feOffset/>
<feComposite in2="hardAlpha" operator="out"/>
<feColorMatrix type="matrix" values="0 0 0 0 0.849002 0 0 0 0 0.864521 0 0 0 0 0.914958 0 0 0 1 0"/>
<feBlend mode="normal" in2="effect1_dropShadow_0_1" result="effect2_dropShadow_0_1"/>
<feColorMatrix in="SourceAlpha" type="matrix" values="0 0 0 0 0 0 0 0 0 0 0 0 0 0 0 0 0 0 127 0" result="hardAlpha"/>
<feOffset dy="2"/>
<feGaussianBlur stdDeviation="2"/>
<feComposite in2="hardAlpha" operator="out"/>
<feColorMatrix type="matrix" values="0 0 0 0 0.746282 0 0 0 0 0.758412 0 0 0 0 0.806934 0 0 0 0.6 0"/>
<feBlend mode="normal" in2="effect2_dropShadow_0_1" result="effect3_dropShadow_0_1"/>
<feBlend mode="normal" in="SourceGraphic" in2="effect3_dropShadow_0_1" result="shape"/>
</filter>
<linearGradient id="paint0_linear_0_1" x1="540.738" y1="393.654" x2="323.151" y2="134.941" gradientUnits="userSpaceOnUse">
<stop stop-color="#F6F6F9"/>
<stop offset="1"/>
</linearGradient>
<linearGradient id="paint1_linear_0_1" x1="826.378" y1="307" x2="991.326" y2="461.748" gradientUnits="userSpaceOnUse">
<stop stop-color="#F6F6F9"/>
<stop offset="1"/>
</linearGradient>
</defs>
</svg>
